<svg xmlns="http://www.w3.org/2000/svg" width="30" height="30" viewBox="0 0 256 256">
  <path fill="#0065A9" d="M230.59 32.58 179.75 7.56a10.65 10.65 0 0 0-11.17 1.02l-107.13 86.7-46.68-27.62a6.17 6.17 0 0 0-8.9 5.34v111.04a6.17 6.17 0 0 0 8.9 5.34l46.68-27.62 107.13 86.7a10.65 10.65 0 0 0 11.17 1.02l50.84-25.02a10.65 10.65 0 0 0 5.84-9.53V42.11a10.65 10.65 0 0 0-5.84-9.53z"></path>
  <path fill="#007ACC" d="M189.42 55.14v145.72L78.75 128z"></path>
  <path fill="#1F9CF0" d="M47.5 99.23 78.75 128 47.5 156.77V99.23z"></path>
</svg>
